<svg width="87" height="87" viewBox="0 0 87 87" fill="none" xmlns="http://www.w3.org/2000/svg">
<circle cx="43.5" cy="43.5" r="43.5" fill="#D6DAFF"/>
<path fill-rule="evenodd" clip-rule="evenodd" d="M55.4626 33.5237C55.4626 40.6345 50.3323 46.737 43.5007 46.737C36.6638 46.737 31.5388 40.6345 31.5388 33.5215C31.5388 26.413 35.9514 22.2556 43.5007 22.2556C51.05 22.2556 55.4626 26.4108 55.4626 33.5237ZM22.5063 62.6321C23.5297 63.6514 27.937 66.7672 43.5007 66.7672C59.0644 66.7672 63.469 63.6514 64.4951 62.6343C64.5903 62.5366 64.6606 62.4236 64.7017 62.3023C64.7428 62.1809 64.7539 62.0539 64.7343 61.9288C64.5004 59.9659 62.3898 51.1882 43.5007 51.1882C24.6116 51.1882 22.501 59.9659 22.2644 61.9288C22.2452 62.054 22.2567 62.1812 22.2983 62.3025C22.3399 62.4238 22.4107 62.5345 22.5063 62.6321Z" fill="white"/>
</svg>
