<svg width="63" height="100" viewBox="0 0 63 100" fill="none" xmlns="http://www.w3.org/2000/svg">
<path d="M37.6711 39.8867H24.7106C19.4815 39.8867 14.9902 44.3809 14.9902 49.6071V104.695H46.0616V78.5757L47.3944 73.4662V49.6071C47.3944 44.378 42.9002 39.8867 37.6711 39.8867Z" fill="#577CFF"/>
<path d="M25.6492 47.8242C22.1685 47.8242 18.8305 49.2069 16.3693 51.6681C13.9081 54.1293 12.5254 57.4674 12.5254 60.948C12.5254 64.4287 13.9081 67.7668 16.3693 70.2279C18.8305 72.6891 22.1685 74.0718 25.6492 74.0718V47.8242Z" fill="#0072DB"/>
<path d="M25.6508 50.7422C22.9436 50.7422 20.3473 51.8176 18.433 53.7319C16.5188 55.6461 15.4434 58.2424 15.4434 60.9496C15.4434 63.6568 16.5188 66.2531 18.433 68.1673C20.3473 70.0816 22.9436 71.157 25.6508 71.157V50.7422Z" fill="#577CFF"/>
<path d="M31.4832 47.8242C28.0025 47.8242 24.6644 49.2069 22.2032 51.6681C19.7421 54.1293 18.3594 57.4674 18.3594 60.948C18.3594 64.4287 19.7421 67.7668 22.2032 70.2279C24.6644 72.6891 28.0025 74.0718 31.4832 74.0718V47.8242Z" fill="#0072DB"/>
<path d="M31.4828 50.7422C28.7756 50.7422 26.1793 51.8176 24.2651 53.7319C22.3508 55.6461 21.2754 58.2424 21.2754 60.9496C21.2754 63.6568 22.3508 66.2531 24.2651 68.1673C26.1793 70.0816 28.7756 71.157 31.4828 71.157V50.7422Z" fill="#577CFF"/>
<path d="M7.60825 104.693H28.4722V63.1341C27.1324 62.9 25.7755 62.778 24.4155 62.7695C17.9592 62.7695 11.7675 65.3343 7.20222 69.8995C2.63699 74.4647 0.0722656 80.6565 0.0722656 87.1127C0.0722656 94.0304 2.97117 100.26 7.60825 104.693Z" fill="#0072DB"/>
<path d="M27.9517 52.6986V65.7962C26.7833 65.5926 25.6001 65.4863 24.4141 65.4783C21.5726 65.4779 18.7589 66.0373 16.1336 67.1245C13.5084 68.2117 11.123 69.8055 9.11375 71.8147C7.10452 73.8239 5.51078 76.2093 4.42357 78.8346C3.33635 81.4598 2.77696 84.2736 2.77734 87.1151C2.77762 90.5548 3.59952 93.9446 5.17461 97.0025C6.7497 100.06 9.03243 102.698 11.8328 104.695H43.0266V44.4219L27.9517 52.6986Z" fill="#577CFF"/>
<path d="M44.4268 46.3672L58.5714 61.2817L46.0659 74.4375L46.06 83.3209L34.5694 91.1194L26.8672 79.0484L43.3303 62.1041L37.6754 56.4958L44.4268 46.3672Z" fill="#0072DB"/>
<path d="M44.4233 42.7227L60.3586 59.3286C60.3586 59.3286 65.891 63.7849 60.3586 69.049C57.0368 72.2075 36.2224 86.2266 36.2224 86.2266L29.7422 79.7464L47.3981 62.5688L37.6748 52.8484L44.4233 42.7227Z" fill="#577CFF"/>
<path d="M32.4473 79.9979C29.1693 78.4376 26.0604 78.6535 23.0536 80.412C21.6158 81.2549 21.0296 82.8297 23.2315 83.3518C25.4421 83.868 32.4473 79.9979 32.4473 79.9979Z" fill="#EEC2AD"/>
<path d="M36.8659 85.591C37.2713 90.7385 30.374 95.5476 25.142 94.9206C21.4032 94.4715 18.1485 84.3982 22.5843 83.1004C26.5389 81.9455 27.6326 78.3525 32.3251 79.6941C36.0522 80.7615 36.7172 83.6137 36.8659 85.591Z" fill="#F7DECE"/>
<path d="M33.4059 87.5799L32.7876 86.2938C32.7876 86.2938 30.5391 89.6389 27.4127 90.9309C25.0416 91.8991 23.0439 91.9954 21.9969 91.8233C22.446 92.6778 22.4548 92.8236 23.0439 93.369C26.3015 93.4827 31.5073 91.7358 33.4059 87.5799ZM26.9402 87.4662C29.8274 85.4889 30.6703 83.5991 30.6703 83.5991L29.7283 82.4062C29.7283 82.4062 26.389 87.5858 20.4629 87.3204C20.5066 88.0437 20.4483 88.1836 20.6612 88.9244C21.4574 88.9507 24.5954 89.0702 26.9402 87.4662Z" fill="#E0AA94"/>
<path d="M18.5734 13.7271C18.9748 14.6819 19.1841 15.7064 19.1893 16.742C19.1946 17.7777 18.9957 18.8042 18.6041 19.763C18.2125 20.7218 17.6357 21.594 16.9069 22.3298C16.178 23.0655 15.3113 23.6505 14.3563 24.0512C13.3983 24.4459 12.3719 24.648 11.3358 24.6458C10.2997 24.6437 9.27415 24.4373 8.31781 24.0387C7.36146 23.64 6.49305 23.0567 5.76222 22.3223C5.03138 21.5878 4.45245 20.7166 4.05849 19.7583C3.65731 18.8032 3.44831 17.7783 3.44345 16.7424C3.43858 15.7065 3.63794 14.6798 4.03014 13.721C4.42234 12.7621 4.99968 11.89 5.72915 11.1545C6.45861 10.4189 7.32591 9.83434 8.28144 9.4342C9.23902 9.0396 10.265 8.83764 11.3007 8.83986C12.3364 8.84209 13.3615 9.04846 14.3173 9.44717C15.2732 9.84587 16.1411 10.4291 16.8714 11.1635C17.6017 11.8979 18.1801 12.769 18.5734 13.7271Z" fill="#292F33"/>
<path d="M34.3517 34.1156C37.8601 29.9306 39.9541 24.5819 38.1547 20.2598L35.1799 13.0942C19.0989 19.1487 12.4816 10.8398 12.4816 10.8398C12.4816 10.8398 15.6313 18.4167 8.87109 22.275L12.467 30.9309C15.4067 38.0003 19.4139 43.0632 26.4745 40.1613L26.7136 41.1121C27.3144 43.4948 26.874 45.4225 30.3825 45.5567C32.8352 45.65 36.1482 41.2696 35.5474 38.8869L34.3517 34.1156Z" fill="#F7DECE"/>
<path d="M53.0947 15.4866C55.4978 9.06468 49.7146 4.18262 44.7917 3.681C41.8053 3.3777 39.1106 5.2821 37.7982 7.56273C31.8166 -2.45219 22.8691 -0.092821 17.1763 1.91075C11.1452 4.03389 2.17434 10.2779 5.69444 16.9885C9.21453 23.7021 20.9705 20.8149 20.9705 20.8149L25.2256 27.6742C24.0765 21.7714 27.9961 20.4532 29.8072 21.7394C31.7146 23.0955 30.4488 27.4438 31.3179 29.1587C32.187 30.8735 35.1967 33.2241 35.1967 33.2241C37.0457 30.8735 42.8815 22.7893 40.1546 12.9989C41.2833 12.576 42.9777 12.8618 44.3455 13.5763C47.8218 15.3816 45.0833 24.3758 49.9187 27.2193C54.5529 29.9461 57.271 26.1956 57.271 26.1956C52.5231 26.3531 50.7995 21.6256 53.0947 15.4866Z" fill="#292F33"/>
<path d="M14.9818 34.0657L14.0836 34.439C13.9895 34.4809 13.8879 34.5036 13.7849 34.5057C13.6818 34.5079 13.5794 34.4894 13.4836 34.4513C13.3878 34.4133 13.3006 34.3565 13.2271 34.2842C13.1537 34.212 13.0954 34.1257 13.0557 34.0306C13.016 33.9355 12.9957 33.8334 12.9961 33.7304C12.9965 33.6273 13.0174 33.5254 13.0578 33.4305C13.0981 33.3357 13.157 33.2499 13.231 33.1782C13.305 33.1064 13.3926 33.0502 13.4886 33.0128L14.3898 32.6395C14.4844 32.5952 14.5869 32.5705 14.6913 32.5669C14.7956 32.5633 14.8996 32.5808 14.997 32.6185C15.0944 32.6562 15.1831 32.7133 15.2578 32.7862C15.3326 32.8592 15.3917 32.9465 15.4318 33.0429C15.4718 33.1394 15.4919 33.2429 15.4908 33.3474C15.4897 33.4518 15.4675 33.5549 15.4254 33.6505C15.3834 33.746 15.3224 33.8321 15.2461 33.9035C15.1699 33.9748 15.08 34.03 14.9818 34.0657Z" fill="#BF6952"/>
<path d="M15.4238 28.0241C15.0455 28.1807 14.6206 28.1808 14.2422 28.0244C13.8639 27.868 13.563 27.568 13.4057 27.19L12.8078 25.758C12.6504 25.379 12.65 24.953 12.8067 24.5737C12.9634 24.1944 13.2643 23.8929 13.6433 23.7355C14.0223 23.5781 14.4484 23.5777 14.8277 23.7344C15.2069 23.8911 15.5085 24.1921 15.6659 24.5711L16.2608 26.0001C16.3392 26.1879 16.3797 26.3893 16.38 26.5928C16.3803 26.7963 16.3404 26.9979 16.2627 27.1859C16.1849 27.374 16.0708 27.5448 15.9268 27.6887C15.7829 27.8325 15.6119 27.9465 15.4238 28.0241Z" fill="#662113"/>
<path d="M16.2051 37.5675C16.9138 38.4278 17.6895 39.1453 18.5265 39.7052C21.6033 37.9291 21.8192 35.2344 21.8192 35.2344L16.3509 37.5063L16.2051 37.5675Z" fill="#DF1F32"/>
</svg>
