<svg width="72" height="84" viewBox="0 0 72 84" fill="none" xmlns="http://www.w3.org/2000/svg">
<path d="M45.88 34.5123C44.5149 34.5123 43.4275 34.2492 42.5536 33.8438C41.246 33.2384 40.3991 32.3054 39.866 31.3738C39.6004 30.9107 39.4164 30.4501 39.3009 30.0448C39.1854 29.6407 39.1398 29.2849 39.1411 29.0728C39.1411 28.6674 38.8136 28.3398 38.4095 28.3398C38.0054 28.3398 37.6777 28.6674 37.6777 29.0728C37.6777 29.336 37.7101 29.626 37.7745 29.9454C37.8871 30.5051 38.0965 31.1494 38.4417 31.8166C38.9557 32.8114 39.7747 33.8571 40.999 34.6492C41.3064 34.8519 41.6351 35.0331 41.9923 35.1943C42.0486 35.4371 42.1278 35.8627 42.1267 36.3796C42.1267 36.754 42.085 37.1703 41.9723 37.5985C41.8593 38.0267 41.6756 38.4617 41.3802 38.8871C41.1533 39.2213 41.234 39.675 41.5667 39.9046C41.8983 40.1343 42.3535 40.0525 42.583 39.7196C42.9829 39.1435 43.2367 38.5436 43.3872 37.973C43.5362 37.401 43.5884 36.8561 43.5884 36.3796C43.5884 36.142 43.575 35.9177 43.5563 35.7165C44.2596 35.8789 45.0303 35.9755 45.8799 35.9755C46.2839 35.9755 46.6116 35.6481 46.6116 35.2439C46.6118 34.84 46.2843 34.5123 45.88 34.5123Z" fill="#BCCBE1"/>
<path d="M49.123 25.0959C48.7713 24.8999 48.3269 25.0207 48.127 25.3739C47.9283 25.7242 48.0532 26.1699 48.4049 26.3699C48.9444 26.6786 49.2721 27.0195 49.4923 27.3727C48.5901 27.6893 47.7927 27.821 47.0853 27.821C46.0529 27.8197 45.2087 27.5472 44.4944 27.1284C43.7841 26.7109 43.211 26.1378 42.7747 25.5457C42.0567 24.5657 41.1237 23.6946 40.0229 23.0583C38.9222 22.4247 37.6508 22.0273 36.2844 22.0273C35.0883 22.0273 33.8278 22.3361 32.5767 23.022C32.0666 23.3014 31.6223 23.6288 31.237 23.9873C29.716 24.5726 28.4072 24.7847 27.2971 24.7847C25.7172 24.7819 24.5384 24.3604 23.7492 23.9443C23.3559 23.7349 23.0618 23.5281 22.8714 23.3778C22.7761 23.3014 22.7049 23.2423 22.6618 23.202L22.6189 23.1604L22.6108 23.1524C22.3302 22.8652 21.8697 22.857 21.5784 23.1361C21.2885 23.4166 21.2804 23.8785 21.5596 24.1698C21.6025 24.2116 22.1034 24.7242 23.0658 25.2358C23.4871 25.4586 24.0027 25.6774 24.5988 25.856C24.4405 26.0787 24.2241 26.4063 23.9881 26.8196C23.5358 27.6185 23.0161 28.7406 22.7531 30.0604C22.6711 30.4589 22.929 30.8429 23.3249 30.9221C23.721 31.0027 24.1048 30.7435 24.184 30.3475C24.4056 29.2348 24.8619 28.244 25.2606 27.5419C25.4607 27.1875 25.6444 26.9097 25.7774 26.7191C25.8445 26.6264 25.8969 26.5526 25.9331 26.5069C25.9506 26.4841 25.9641 26.4681 25.972 26.4573L25.9827 26.4466L25.984 26.4439C26.05 26.362 26.0942 26.2693 26.1197 26.1701C26.4914 26.2184 26.8821 26.2453 27.297 26.2453C28.0648 26.2453 28.9079 26.1541 29.8153 25.9486C29.3629 26.9166 29.179 27.9287 29.1775 28.855C29.1803 29.7866 29.3575 30.635 29.6757 31.309C29.8487 31.6728 30.2851 31.8299 30.6489 31.6566C31.0126 31.4833 31.1698 31.0486 30.9965 30.6833C30.7938 30.2616 30.6379 29.5932 30.6407 28.8549C30.6394 28.0575 30.8139 27.1823 31.2261 26.3808C31.6408 25.5808 32.2825 24.8518 33.2799 24.3041C34.3311 23.7267 35.3379 23.4906 36.2842 23.4878C37.3649 23.4906 38.3823 23.8018 39.2924 24.3255C40.2 24.8477 40.992 25.586 41.596 26.4089C42.1275 27.1351 42.839 27.8492 43.7533 28.3889C44.666 28.9286 45.7882 29.2844 47.0851 29.2816C47.9429 29.2816 48.8744 29.1287 49.8786 28.7878L49.8799 28.8389C49.8799 29.1972 49.8236 29.5233 49.7684 29.7544C49.7416 29.8672 49.7134 29.9597 49.6933 30.0175C49.6839 30.047 49.6772 30.0686 49.6718 30.0819L49.6679 30.0927V30.094C49.5203 30.4684 49.7 30.8914 50.0746 31.0417C50.4504 31.1907 50.876 31.0082 51.0263 30.635C51.0464 30.5826 51.3377 29.851 51.3418 28.839C51.3418 28.259 51.2411 27.5772 50.9015 26.9047C50.5661 26.2289 49.9874 25.5832 49.123 25.0959Z" fill="#BCCBE1"/>
<path d="M30.354 19.6345C30.8577 19.0411 31.5731 18.574 32.3878 18.2612C33.2026 17.9443 34.1102 17.7873 34.9612 17.7873C35.7882 17.7873 36.5601 17.9389 37.1239 18.2034C37.4931 18.3725 37.9265 18.2116 38.0943 17.8463C38.2635 17.4798 38.1038 17.0436 37.7385 16.8773C36.9224 16.4987 35.9612 16.3296 34.9611 16.3281C33.9329 16.3281 32.8617 16.512 31.8615 16.8961C30.8655 17.2799 29.9392 17.8666 29.2412 18.6922C28.9781 18.9995 29.017 19.46 29.3244 19.7203C29.6332 19.9834 30.0963 19.9433 30.354 19.6345Z" fill="#BCCBE1"/>
<path d="M41.652 0.195676C23.6318 -0.913249 8.45742 10.4234 8.80095 28.8934L8.78756 30.5649L0.95867 44.3903C0.537132 45.1353 0.499433 46.0387 0.856672 46.8174C1.21375 47.596 1.92251 48.1557 2.76281 48.3222L7.60096 49.6565L9.12049 64.3155C9.1608 65.729 9.78911 67.0608 10.8549 67.9884C11.9208 68.9174 13.3277 69.3564 14.7319 69.1992L18.5952 69.5067C19.3495 69.4234 20.1041 69.6637 20.6691 70.1712C21.2343 70.676 21.5579 71.3994 21.5579 72.158V83.678H54.2466C54.2466 83.678 54.2466 78.0925 54.2466 75.864C54.2466 73.6342 55.0171 68.5386 56.4749 66.2053C61.7747 57.7321 70.401 53.2243 71.8562 35.8484C73.3126 18.4697 62.9413 1.50729 41.652 0.195676ZM63.4003 29.9942C62.6674 31.2051 61.4821 31.9594 60.188 32.1823C59.7908 32.2522 59.5221 32.628 59.5894 33.0267C59.6605 33.4239 60.0377 33.6939 60.4351 33.6227C60.7318 33.5716 61.0244 33.4979 61.3131 33.4052C61.6244 34.0508 61.7801 34.7448 61.7801 35.4361C61.7801 36.1744 61.6044 36.9074 61.2674 37.5704C60.9317 38.2324 60.4351 38.8217 59.7826 39.2807C58.9624 39.8565 58.0294 40.1303 57.1032 40.1318C57.0295 40.1318 56.9568 40.1238 56.8844 40.1224C56.8682 40.0001 56.8534 39.8794 56.832 39.7599V39.7584C56.6724 38.9114 56.3408 38.1356 55.8884 37.4616L55.8332 37.3798L55.7582 37.3154C55.2051 36.8401 54.4707 36.0615 53.9042 35.2682C53.6183 34.8723 53.3755 34.4708 53.2116 34.1138C53.0465 33.7554 52.9699 33.4438 52.9727 33.2599C52.9727 33.178 52.9848 33.1215 53.0009 33.084C53.0143 33.0478 53.0277 33.0262 53.0559 32.9967C53.3406 32.7134 53.3406 32.2489 53.0559 31.9617C52.77 31.6784 52.3083 31.6784 52.0237 31.9617C51.8437 32.1389 51.7094 32.3535 51.6276 32.5805C51.5431 32.8035 51.5121 33.0355 51.5121 33.2598C51.5147 33.7658 51.6678 34.2464 51.8825 34.7217C52.2088 35.4319 52.6946 36.1366 53.2222 36.7809C53.7177 37.385 54.2425 37.9287 54.7152 38.3448C55.0414 38.8429 55.2788 39.4067 55.3957 40.0282C55.444 40.2901 55.4695 40.5504 55.4748 40.7988V40.8042C55.4748 40.8363 55.4762 40.8687 55.4762 40.9034C55.4762 42.007 55.0828 43.0527 54.4075 43.8756C53.7311 44.6971 52.7793 45.2944 51.6503 45.5066C51.3562 45.5629 51.0636 45.5898 50.7762 45.5898C49.2259 45.5911 47.792 44.8112 46.9303 43.5735C47.3948 43.1023 47.7909 42.5506 48.0915 41.9236V41.9249C48.466 41.1503 48.6633 40.3288 48.6982 39.5154C48.7157 39.1127 48.4043 38.7717 48.0016 38.7543C47.5962 38.7355 47.2564 39.0495 47.2376 39.4523C47.2122 40.0724 47.0619 40.6939 46.7759 41.2873L46.7746 41.29C46.4672 41.9249 46.0403 42.4566 45.5301 42.8768L45.5275 42.8781C44.6872 43.564 43.6279 43.9426 42.5447 43.9426C41.8629 43.9426 41.1701 43.7936 40.5123 43.4754C39.2948 42.8902 38.4491 41.8472 38.0746 40.6537H38.0733C37.931 40.2013 37.8572 39.7248 37.8572 39.247C37.8572 38.5637 38.0062 37.8709 38.3243 37.2119C38.5002 36.8481 38.3458 36.4106 37.9821 36.2373C37.6196 36.0615 37.1834 36.2131 37.0075 36.5771C36.5941 37.4361 36.394 38.3504 36.394 39.2471C36.394 39.682 36.4451 40.1116 36.5337 40.5317C35.9632 40.8432 35.3202 41.0431 34.6248 41.0927H34.6235C34.5094 41.1009 34.3979 41.1061 34.2852 41.1061C33.187 41.1061 32.1709 40.7249 31.3654 40.0791C30.6607 39.5154 30.1212 38.7569 29.8338 37.8735C30.3466 37.3676 30.7735 36.7729 31.0862 36.1137C31.258 35.7485 31.1022 35.3136 30.7373 35.1417C30.3735 34.9686 29.9345 35.1243 29.7639 35.4907C29.4753 36.103 29.0537 36.6466 28.5396 37.0802C27.8067 37.699 26.883 38.0964 25.8549 38.1704H25.8536C25.7395 38.1783 25.628 38.1837 25.5167 38.1837C23.1971 38.1837 21.2157 36.4695 20.88 34.1768L20.8787 34.1701V34.1661C20.8599 34.056 20.8478 33.9419 20.8398 33.8238C20.8318 33.7123 20.8278 33.5969 20.8278 33.4841C20.8278 33.1901 20.856 32.8989 20.9084 32.6182C20.9795 32.2208 20.7179 31.8396 20.3205 31.7658C19.9259 31.6947 19.5434 31.9538 19.4682 32.3511C19.4022 32.7188 19.3662 33.0974 19.3662 33.484L19.3675 33.5282C18.7098 33.4544 18.072 33.2436 17.5015 32.9094C16.7792 32.488 16.1657 31.8705 15.7416 31.0783C15.3644 30.3708 15.1857 29.6178 15.1857 28.8714C15.1857 27.9075 15.4852 26.9613 16.0369 26.1705C16.2504 26.4711 16.4906 26.7544 16.7604 27.0201C17.3779 27.6255 18.0921 28.0738 18.8479 28.3664C19.225 28.5143 19.6467 28.3261 19.7929 27.9477C19.9406 27.5718 19.7513 27.149 19.3768 27.0026C18.7982 26.7797 18.2558 26.4389 17.7859 25.9771V25.9758C17.3698 25.5704 17.0476 25.1085 16.818 24.6132C16.5228 23.9849 16.3751 23.3018 16.3751 22.6239C16.3762 21.4345 16.8193 20.2559 17.7133 19.3431C18.4745 18.5671 19.4329 18.1133 20.4276 17.9752H20.4289H20.4315C20.6437 17.9483 20.8557 17.9336 21.0678 17.9336C22.2546 17.9349 23.4345 18.382 24.35 19.2747C24.6387 19.5553 25.1004 19.5525 25.3837 19.2627C25.6657 18.9754 25.6604 18.5136 25.373 18.2303C24.2077 17.0892 22.699 16.5053 21.1886 16.4785C21.359 15.779 21.6867 15.1282 22.1457 14.5804C22.7834 13.8207 23.6547 13.2594 24.6964 13.0192C25.0508 12.9401 25.3997 12.8998 25.7473 12.8998C26.3595 12.8998 26.9555 13.0231 27.506 13.2461C27.3503 13.7911 27.2643 14.363 27.2643 14.9564C27.2643 15.359 27.5907 15.6852 27.9946 15.6852C28.3985 15.6852 28.7247 15.359 28.7247 14.9564C28.7247 14.3173 28.8551 13.7066 29.0833 13.1522C29.4363 12.3038 30.0337 11.5816 30.7841 11.0715C31.5371 10.5613 32.4379 10.2648 33.4165 10.2648C34.826 10.2648 36.0839 10.8808 36.9456 11.8648C37.6718 12.6904 38.1082 13.7696 38.1082 14.9564C38.1082 15.359 38.4372 15.6852 38.8398 15.6852C39.2439 15.6852 39.5728 15.359 39.5728 14.9564C39.5728 13.6058 39.1352 12.3534 38.3954 11.3399C38.7741 10.8164 39.256 10.3707 39.8143 10.0405C40.5123 9.62978 41.3245 9.39216 42.1958 9.39216C43.1998 9.39216 44.122 9.70501 44.8832 10.2392C45.6471 10.7735 46.2431 11.5307 46.5801 12.4098H46.5788C46.7776 12.9321 46.8863 13.4931 46.8863 14.0852C46.8863 14.488 47.2151 14.8154 47.6179 14.8154C48.0207 14.8154 48.3508 14.488 48.3508 14.0852C48.3508 13.4811 48.2581 12.8999 48.0957 12.3482C48.963 11.5428 50.1107 11.0863 51.296 11.0863C51.9149 11.0863 52.5432 11.2085 53.1498 11.4675C53.9955 11.8341 54.6749 12.4126 55.1594 13.1188C55.6441 13.8262 55.9285 14.6558 55.9783 15.5148C55.9837 15.6034 55.9878 15.6908 55.9878 15.7792C55.985 16.3995 55.8628 17.0251 55.6025 17.6331C55.4429 18.0038 55.6145 18.4333 55.985 18.5916C56.3568 18.7514 56.785 18.5808 56.9461 18.2104C57.2173 17.5794 57.373 16.9283 57.4254 16.2747C58.1421 16.3256 58.8401 16.5431 59.4578 16.9082C60.1625 17.3244 60.7652 17.9337 61.1761 18.715C61.5358 19.3983 61.7049 20.1245 61.7064 20.844C61.7064 21.1729 61.6661 21.4991 61.5951 21.8186C61.1574 21.6468 60.7011 21.5314 60.2459 21.4642C59.8485 21.4092 59.4766 21.6884 59.4231 22.0884C59.3653 22.4886 59.6445 22.8576 60.0419 22.9127C60.5023 22.9783 60.9547 23.11 61.387 23.314C61.4622 23.439 61.5776 23.5423 61.7225 23.6055C61.8111 23.6443 61.9064 23.6633 61.9991 23.6633C62.2689 23.8431 62.5145 24.0458 62.7335 24.2673L62.7348 24.2686C63.6127 25.1531 64.0838 26.3466 64.0838 27.5668C64.0837 28.3953 63.8648 29.233 63.4003 29.9942Z" fill="#F7DECE"/>
<path d="M55.8061 23.5326C55.4436 23.2197 55.0544 22.9633 54.6421 22.7835C54.2286 22.6009 53.7937 22.4922 53.3494 22.4922C52.9454 22.4922 52.6191 22.8197 52.6191 23.2238C52.6191 23.6279 52.9454 23.9541 53.3494 23.9541C53.6179 23.9541 53.9562 24.0468 54.3159 24.2536C54.8515 24.5609 55.4087 25.1139 55.8114 25.8039C56.2196 26.4953 56.4799 27.3155 56.4773 28.1652C56.4745 29.0982 56.1806 30.0729 55.3832 31.0406C55.1281 31.3507 55.1711 31.8125 55.4824 32.0689C55.794 32.3281 56.2557 32.2824 56.5122 31.9736C57.5149 30.7614 57.9431 29.4191 57.9418 28.1652C57.9418 27.4028 57.7861 26.6725 57.5311 26.0066C57.1444 25.0092 56.5297 24.1579 55.8061 23.5326Z" fill="#C0CDE2"/>
<path d="M50.7505 20.2182C48.7409 20.2182 47.1287 19.4773 46.0118 18.5094C45.4533 18.026 45.0264 17.4865 44.7458 16.9683C44.4612 16.4515 44.3323 15.9588 44.3351 15.5896C44.3351 15.187 44.0075 14.8595 43.6048 14.8595C43.2007 14.8595 42.8731 15.187 42.8731 15.5896C42.8758 16.2757 43.0907 16.9817 43.4611 17.6665C43.8518 18.3806 44.4211 19.0746 45.1419 19.6839C44.9968 19.8853 44.7969 20.1484 44.5391 20.4263C43.9832 21.0344 43.1806 21.7069 42.2207 22.0493C41.8435 22.1835 41.6435 22.6009 41.7791 22.9821C41.9145 23.3634 42.3308 23.5594 42.7134 23.4251C44.0142 22.958 44.9861 22.1056 45.6478 21.3792C45.9419 21.0571 46.1701 20.7605 46.3406 20.5242C47.5487 21.2209 49.0428 21.6815 50.7504 21.6815C51.1544 21.6815 51.4805 21.3539 51.4805 20.9512C51.4807 20.5472 51.1544 20.2182 50.7505 20.2182Z" fill="#BCCBE1"/>
</svg>
