<svg width="78" height="87" viewBox="0 0 78 87" fill="none" xmlns="http://www.w3.org/2000/svg">
<path d="M66.6459 46.9102H11.5352C5.59621 46.9102 0.734375 51.5876 0.734375 57.3126C0.734375 63.0302 5.59621 67.715 11.5352 67.715H66.6459C72.5848 67.715 77.4467 63.0376 77.4467 57.3126C77.454 51.5876 72.5922 46.9102 66.6459 46.9102Z" fill="#EDC391"/>
<path d="M68.4252 20.4631C61.3354 9.67708 52.1945 5.98828 38.9148 5.98828C25.6351 5.98828 16.4943 9.6697 9.40442 20.4631C4.21059 28.3719 2.9564 40.8032 4.55734 53.6107C6.09926 65.9239 7.37559 72.6818 15.0188 79.5798C21.6586 85.5705 30.674 86.8615 38.4058 86.8615H39.4239C47.1556 86.8615 56.1784 85.5705 62.8109 79.5798C70.4541 72.6818 71.7304 65.9239 73.2723 53.6107C74.8733 40.8032 73.6191 28.3645 68.4252 20.4631Z" fill="#F7DECE"/>
<path d="M49.9048 21.6416C50.0081 21.5309 50.1114 21.4276 50.2147 21.3169C50.2884 21.2358 50.3622 21.1473 50.436 21.0661C50.6057 20.8669 50.768 20.6677 50.9229 20.4611L50.9893 20.3726C51.1369 20.1734 51.2697 19.9668 51.4025 19.7529C51.4393 19.6939 51.4762 19.6275 51.5131 19.5684C51.6385 19.3545 51.764 19.1405 51.882 18.9118C51.9041 18.875 51.9189 18.8454 51.9336 18.8086C52.214 18.2552 52.4574 17.6576 52.6566 17.0306L52.6788 16.9642C53.0846 15.6583 53.3206 14.2049 53.3206 12.5671C53.3206 9.29145 52.1402 6.70191 50.3401 4.74685C50.3179 4.72472 50.3032 4.70996 50.2884 4.68783C50.1483 4.54028 50.0007 4.39272 49.8532 4.24517L49.7646 4.15664C49.5929 3.99334 49.4157 3.83586 49.2334 3.68447C49.0859 3.55906 48.9383 3.44101 48.7908 3.32297C48.7539 3.29346 48.717 3.27133 48.6875 3.24182L48.2006 2.88769C48.1711 2.87294 48.1489 2.85081 48.1194 2.83605C47.5292 2.43766 46.9169 2.08354 46.2824 1.78105C46.2603 1.7663 46.2308 1.75892 46.2086 1.74417C46.0242 1.65563 45.8397 1.57448 45.6553 1.49333L45.4856 1.41955C45.3233 1.35315 45.161 1.28675 44.9987 1.22773C44.9397 1.2056 44.8733 1.18347 44.8143 1.16134C44.6593 1.10231 44.5044 1.05067 44.3568 0.999028L44.1576 0.93263C44.0027 0.880987 43.8552 0.836721 43.7002 0.792455C43.6338 0.770323 43.5674 0.755567 43.4937 0.733435C43.3387 0.689169 43.1838 0.652281 43.0289 0.615393L42.8371 0.571128C42.6674 0.534239 42.4977 0.497351 42.3354 0.460463C42.2837 0.453086 42.2321 0.438331 42.1805 0.430953C41.7452 0.335044 41.3099 0.268646 40.8746 0.217003C40.8156 0.209625 40.7566 0.209625 40.6976 0.202247C40.5426 0.187492 40.3951 0.172737 40.2401 0.165359C40.1516 0.157982 40.0705 0.157982 39.9819 0.150604C39.8565 0.143227 39.7385 0.135849 39.6204 0.135849C39.5245 0.135849 39.4286 0.128471 39.3253 0.128471C39.2589 0.128471 39.1925 0.121094 39.1335 0.121094H39.0597C38.7425 0.121094 38.4253 0.135849 38.1154 0.157982C38.0564 0.165359 37.9974 0.165359 37.9383 0.172737C37.6211 0.202247 37.3112 0.231758 37.0161 0.283401C33.3937 0.873609 30.4648 2.77703 28.6352 4.63619C27.5359 5.7502 26.835 6.84947 26.6211 7.63887H26.6285C28.9745 7.04128 32.0067 6.51747 35.3857 6.34041C39.9598 6.02317 43.7814 8.62747 43.597 12.6261C43.5748 13.1057 43.5158 13.5557 43.4346 13.9762L43.4125 14.1016C43.3756 14.264 43.3314 14.4263 43.2871 14.5812C43.265 14.655 43.2428 14.7287 43.2281 14.7951C43.1838 14.9279 43.1395 15.0607 43.0879 15.1935C43.0584 15.2747 43.0215 15.3558 42.9846 15.437C42.933 15.555 42.8813 15.6657 42.8297 15.769C42.7854 15.8575 42.7412 15.9387 42.6895 16.0198C42.6379 16.1157 42.5788 16.2116 42.5198 16.3002C42.4608 16.3887 42.3944 16.4772 42.3354 16.5658C42.2837 16.6395 42.2321 16.7133 42.1731 16.7871C42.0772 16.9051 41.9739 17.0158 41.8706 17.1191C41.8411 17.1486 41.8116 17.1855 41.7821 17.215C41.6419 17.3552 41.4943 17.4806 41.3394 17.606C41.3099 17.6281 41.273 17.6503 41.2435 17.6724C41.1179 17.77 40.9874 17.8611 40.8525 17.9454C40.8082 17.9675 40.7713 17.997 40.7271 18.0192C40.5943 18.1003 40.4615 18.1741 40.3287 18.2405C40.2844 18.2626 40.2475 18.2847 40.2033 18.2995C40.0631 18.3659 39.9155 18.4323 39.7606 18.4913C39.7311 18.5061 39.6942 18.5208 39.6573 18.5282C39.4876 18.5946 39.3179 18.6536 39.1409 18.7053C39.1261 18.7126 39.1114 18.7126 39.0966 18.72C38.2998 18.9561 37.444 19.0594 36.5735 19.0594C33.9471 19.0594 31.2247 18.0856 29.6607 16.6912C29.5314 16.5736 29.3633 16.5079 29.1885 16.5067C29.1516 16.5067 29.1147 16.5215 29.0852 16.5289C29.0557 16.5363 29.0188 16.5363 28.9893 16.551C28.945 16.5658 28.9008 16.5805 28.8565 16.6027C28.7827 16.6395 28.7237 16.6838 28.6647 16.7355C28.6499 16.7502 28.6426 16.765 28.6278 16.7797C28.5762 16.8387 28.5319 16.9125 28.495 16.9863C28.4876 17.001 28.4876 17.0084 28.4802 17.0232C28.4434 17.1191 28.4212 17.2297 28.436 17.3478C28.6573 19.5758 30.0591 22.3646 33.3937 24.4598C36.5661 26.4591 43.2428 26.4813 47.994 23.2277L48.1268 23.1392C48.267 23.0359 48.4145 22.9326 48.5547 22.8294C48.6137 22.7851 48.6801 22.7334 48.7391 22.6818C48.9457 22.5195 49.1449 22.3498 49.3367 22.1727L49.6245 21.9072C49.7277 21.826 49.8163 21.7301 49.9048 21.6416Z" fill="#312D2D"/>
<path d="M49.9048 21.6416C50.0081 21.5309 50.1114 21.4276 50.2147 21.3169C50.2884 21.2358 50.3622 21.1473 50.436 21.0661C50.6057 20.8669 50.768 20.6677 50.9229 20.4611L50.9893 20.3726C51.1369 20.1734 51.2697 19.9668 51.4025 19.7529C51.4393 19.6939 51.4762 19.6275 51.5131 19.5684C51.6385 19.3545 51.764 19.1405 51.882 18.9118C51.9041 18.875 51.9189 18.8454 51.9336 18.8086C52.214 18.2552 52.4574 17.6576 52.6566 17.0306L52.6788 16.9642C53.0845 15.6583 53.3206 14.2049 53.3206 12.5671C53.3206 9.29145 52.1402 6.70191 50.3401 4.74685C50.3179 4.72472 50.3032 4.70996 50.2884 4.68783C50.1483 4.54028 50.0007 4.39272 49.8532 4.24517L49.7646 4.15664C49.5929 3.99334 49.4157 3.83586 49.2334 3.68447C49.0859 3.55906 48.9383 3.44101 48.7908 3.32297C48.7539 3.29346 48.717 3.27133 48.6875 3.24182L48.2006 2.88769C48.1711 2.87294 48.1489 2.85081 48.1194 2.83605C47.5292 2.43766 46.9169 2.08354 46.2824 1.78105C46.2603 1.7663 46.2308 1.75892 46.2086 1.74417C46.0242 1.65563 45.8397 1.57448 45.6553 1.49333L45.4856 1.41955C45.3233 1.35315 45.161 1.28675 44.9987 1.22773C44.9397 1.2056 44.8733 1.18347 44.8143 1.16134C44.6593 1.10231 44.5044 1.05067 44.3568 0.999028L44.1576 0.93263C44.0027 0.880987 43.8552 0.836721 43.7002 0.792455C43.6338 0.770323 43.5674 0.755567 43.4937 0.733434C43.3387 0.689169 43.1838 0.652281 43.0289 0.615393L42.8371 0.571127C42.6674 0.534239 42.4977 0.497351 42.3354 0.460463C42.2837 0.453086 42.2321 0.438331 42.1805 0.430953C41.7452 0.335044 41.3099 0.268646 40.8746 0.217003C40.8156 0.209625 40.7566 0.209625 40.6976 0.202247C40.5426 0.187492 40.3951 0.172737 40.2401 0.165359C40.1516 0.157982 40.0705 0.157982 39.9819 0.150604C39.8565 0.143227 39.7385 0.135849 39.6204 0.135849C39.5245 0.135849 39.4286 0.128471 39.3253 0.128471C39.2589 0.128471 39.1925 0.121094 39.1335 0.121094H39.0597C38.7425 0.121094 38.4253 0.135849 38.1154 0.157982C38.0564 0.165359 37.9974 0.165359 37.9383 0.172737C37.6211 0.202247 37.3112 0.231758 37.0161 0.283401C33.3937 0.873609 30.4648 2.77703 28.6352 4.63619C27.5359 5.7502 26.835 6.84946 26.6211 7.63887H26.6285C28.9745 7.04128 32.0067 6.51747 35.3857 6.34041C39.9598 6.02317 43.7814 8.62747 43.597 12.6261C43.5748 13.1057 43.5158 13.5557 43.4346 13.9762L43.4125 14.1016C43.3756 14.264 43.3314 14.4263 43.2871 14.5812C43.265 14.655 43.2428 14.7287 43.2281 14.7951C43.1838 14.9279 43.1395 15.0607 43.0879 15.1935C43.0584 15.2747 43.0215 15.3558 42.9846 15.437C42.933 15.555 42.8813 15.6657 42.8297 15.769C42.7854 15.8575 42.7412 15.9387 42.6895 16.0198C42.6379 16.1157 42.5788 16.2116 42.5198 16.3002C42.4608 16.3887 42.3944 16.4772 42.3354 16.5658C42.2837 16.6395 42.2321 16.7133 42.1731 16.7871C42.0772 16.9051 41.9739 17.0158 41.8706 17.1191C41.8411 17.1486 41.8116 17.1855 41.7821 17.215C41.6419 17.3552 41.4943 17.4806 41.3394 17.606C41.3099 17.6281 41.273 17.6503 41.2435 17.6724C41.1179 17.77 40.9874 17.8611 40.8525 17.9454C40.8082 17.9675 40.7713 17.997 40.7271 18.0192C40.5943 18.1003 40.4615 18.1741 40.3287 18.2405C40.2844 18.2626 40.2475 18.2847 40.2033 18.2995C40.0631 18.3659 39.9155 18.4323 39.7606 18.4913C39.7311 18.5061 39.6942 18.5208 39.6573 18.5282C39.4876 18.5946 39.3179 18.6536 39.1409 18.7053C39.1261 18.7126 39.1114 18.7126 39.0966 18.72C38.2998 18.9561 37.444 19.0594 36.5735 19.0594C33.9471 19.0594 31.2247 18.0856 29.6607 16.6912C29.5314 16.5736 29.3633 16.5079 29.1885 16.5067C29.1516 16.5067 29.1147 16.5215 29.0852 16.5289C29.0557 16.5363 29.0188 16.5363 28.9893 16.551C28.945 16.5658 28.9008 16.5805 28.8565 16.6027C28.7827 16.6395 28.7237 16.6838 28.6647 16.7355C28.6499 16.7502 28.6426 16.765 28.6278 16.7797C28.5762 16.8387 28.5319 16.9125 28.495 16.9863C28.4876 17.001 28.4876 17.0084 28.4802 17.0232C28.4434 17.1191 28.4212 17.2297 28.436 17.3478C28.6573 19.5758 30.0591 22.3646 33.3937 24.4598C36.5661 26.4591 43.2428 26.4813 47.994 23.2277L48.1268 23.1392C48.267 23.0359 48.4145 22.9326 48.5547 22.8293C48.6137 22.7851 48.6801 22.7334 48.7391 22.6818C48.9457 22.5195 49.1449 22.3498 49.3367 22.1727L49.6245 21.9072C49.7277 21.826 49.8163 21.7301 49.9048 21.6416Z" fill="#577CFF"/>
<path d="M42.9367 57.296C42.8375 57.2553 42.7333 57.228 42.6269 57.2148H35.7657C35.6624 57.2296 35.5591 57.2517 35.4559 57.296C34.8361 57.5468 34.4894 58.1961 34.7845 58.8748C35.0796 59.5609 36.4444 61.4865 39.1963 61.4865C41.9481 61.4865 43.313 59.5609 43.6081 58.8748C43.8958 58.1887 43.5565 57.5468 42.9367 57.296Z" fill="#DBA689"/>
<path d="M23.0522 57.971C25.6925 57.971 27.8329 55.7547 27.8329 53.0207C27.8329 50.2867 25.6925 48.0703 23.0522 48.0703C20.4119 48.0703 18.2715 50.2867 18.2715 53.0207C18.2715 55.7547 20.4119 57.971 23.0522 57.971Z" fill="#312D2D"/>
<path d="M55.3061 57.971C57.9464 57.971 60.0868 55.7547 60.0868 53.0207C60.0868 50.2867 57.9464 48.0703 55.3061 48.0703C52.6658 48.0703 50.5254 50.2867 50.5254 53.0207C50.5254 55.7547 52.6658 57.971 55.3061 57.971Z" fill="#312D2D"/>
<path d="M46.0677 67.5754C43.4118 69.1542 34.7062 69.1542 32.0577 67.5754C30.5305 66.6679 28.9738 68.0549 29.6083 69.4419C30.228 70.8068 34.9792 73.9644 39.0885 73.9644C43.1905 73.9644 47.8826 70.8068 48.5023 69.4419C49.1294 68.0549 47.5875 66.6679 46.0677 67.5754Z" fill="#444444"/>
</svg>
