<svg width="77" height="91" viewBox="0 0 77 91" fill="none" xmlns="http://www.w3.org/2000/svg">
<path d="M53.7272 23.3278C42.4154 23.3278 17.9479 20.3867 17.9479 20.3867C17.9479 20.3867 13.0556 25.7683 10.2276 28.5963C4.95913 33.8647 5.41725 40.5331 4.71875 48.8501C5.58693 71.9658 20.3856 90.3842 38.5722 90.3842C56.6542 90.3842 71.3935 72.1722 72.4087 49.2347C71.4132 38.9692 64.5017 23.3278 53.7272 23.3278Z" fill="#F7DECE"/>
<path d="M38.5737 79.0691C31.9364 79.0691 28.4637 75.7887 28.0904 75.4126C27.5564 74.8861 27.2534 74.169 27.2481 73.4191C27.2428 72.6692 27.5356 71.9479 28.0621 71.4138C28.5887 70.8798 29.3057 70.5768 30.0557 70.5715C30.8056 70.5662 31.5269 70.8591 32.0609 71.3856C32.2051 71.5185 34.3402 73.4132 38.5737 73.4132C42.8693 73.4132 45.0016 71.4619 45.0921 71.3799C45.6352 70.8711 46.3557 70.5949 47.0997 70.6102C47.8437 70.6256 48.5522 70.9312 49.0739 71.4619C49.5913 71.9903 49.8796 72.7012 49.8764 73.4407C49.8733 74.1802 49.5788 74.8887 49.0569 75.4126C48.6836 75.7887 45.2109 79.0691 38.5737 79.0691ZM41.4016 64.9293H35.7457C34.9957 64.9293 34.2764 64.6314 33.746 64.1011C33.2157 63.5707 32.9177 62.8514 32.9177 62.1014C32.9177 61.3514 33.2157 60.6321 33.746 60.1017C34.2764 59.5714 34.9957 59.2734 35.7457 59.2734H41.4016C42.1516 59.2734 42.8709 59.5714 43.4013 60.1017C43.9316 60.6321 44.2296 61.3514 44.2296 62.1014C44.2296 62.8514 43.9316 63.5707 43.4013 64.1011C42.8709 64.6314 42.1516 64.9293 41.4016 64.9293Z" fill="#C1694F"/>
<path d="M24.4334 53.6165C23.6834 53.6165 22.9641 53.3186 22.4338 52.7882C21.9034 52.2579 21.6055 51.5386 21.6055 50.7886V45.1326C21.6055 44.3826 21.9034 43.6633 22.4338 43.133C22.9641 42.6026 23.6834 42.3047 24.4334 42.3047C25.1834 42.3047 25.9027 42.6026 26.4331 43.133C26.9634 43.6633 27.2614 44.3826 27.2614 45.1326V50.7886C27.2614 51.5386 26.9634 52.2579 26.4331 52.7882C25.9027 53.3186 25.1834 53.6165 24.4334 53.6165ZM52.713 53.6165C51.963 53.6165 51.2437 53.3186 50.7133 52.7882C50.183 52.2579 49.885 51.5386 49.885 50.7886V45.1326C49.885 44.3826 50.183 43.6633 50.7133 43.133C51.2437 42.6026 51.963 42.3047 52.713 42.3047C53.463 42.3047 54.1823 42.6026 54.7126 43.133C55.243 43.6633 55.5409 44.3826 55.5409 45.1326V50.7886C55.5409 51.5386 55.243 52.2579 54.7126 52.7882C54.1823 53.3186 53.463 53.6165 52.713 53.6165Z" fill="#662113"/>
<path d="M38.5667 0.121094C61.77 0.121094 76.2661 17.2415 76.2661 31.5086C76.2661 45.7728 73.3646 51.4852 70.466 45.7728C67.5645 40.0688 64.6659 31.534 64.6659 31.534C64.6659 31.534 54.8302 37.9054 47.1241 28.6523C47.1241 28.6523 50.1698 45.7728 32.7665 28.6523C32.7665 28.6523 35.668 40.0688 18.2676 25.8018C18.2676 25.8018 9.56598 31.5086 6.66732 45.7728C5.86418 49.7347 0.867188 45.7728 0.867188 31.5086C0.86436 17.2415 12.4646 0.121094 38.5667 0.121094Z" fill="#577CFF"/>
<circle cx="54.7236" cy="64.7451" r="1.07713" fill="#FF9494"/>
<circle cx="56.3393" cy="67.437" r="0.538564" fill="#FF9494"/>
<circle cx="54.1841" cy="70.6704" r="1.61569" fill="#FF9494"/>
<circle cx="59.0322" cy="71.206" r="1.07713" fill="#FF9494"/>
<circle cx="61.7231" cy="67.436" r="1.61569" fill="#FF9494"/>
</svg>
